<?xml version="1.0" encoding="UTF-8" standalone="no"?> <svg id="Layer_1" data-name="Layer 1" xmlns="http://www.w3.org/2000/svg" viewBox="0 0 128 128"><defs><style>.cls-1{fill:#2d3e50;}</style></defs><title>a</title><path class="cls-1" d="M124.89667,55.48316A60.63965,60.63965,0,1,0,4.81978,72.51875a59.70247,59.70247,0,0,0,1.83573,8.51446,61.06264,61.06264,0,0,0,7.5966,15.063c.03.48063.06008.9646.06342,1.44189A27.93907,27.93907,0,0,1,3.08086,120.58488a1.45079,1.45079,0,0,0,.64751,2.60006,43.21752,43.21752,0,0,0,30.35631-6.93572c.27369-.18025.544-.36716.81106-.55407l.2203-.1602a71.68491,71.68491,0,0,0,22.25574,8.658,60.68481,60.68481,0,0,0,67.52489-68.70977ZM84.07333,80.07195a12.594,12.594,0,0,1-2.44654,4.44247A14.94173,14.94173,0,0,1,77.181,88.019a21.54682,21.54682,0,0,1-6.72878,2.11943v9.94967H60.17545v-9.706a38.15876,38.15876,0,0,1-9.66263-1.83239A55.79326,55.79326,0,0,1,45.009,86.30676l3.50458-9.37891a42.90539,42.90539,0,0,0,6.80888,2.52664A30.01093,30.01093,0,0,0,63.68335,80.596q4.9765,0,6.8089-1.3451A4.42741,4.42741,0,0,0,72.328,75.45925a4.66111,4.66111,0,0,0-.7343-2.65013,7.13327,7.13327,0,0,0-2.11943-1.99928,20.98678,20.98678,0,0,0-3.50792-1.75229q-2.12277-.85613-4.89305-1.83573-2.68851-.98129-5.26021-2.16282a21.29017,21.29017,0,0,1-4.64941-2.8938,12.49352,12.49352,0,0,1-4.606-10.19331,17.291,17.291,0,0,1,.77435-5.18011,13.70088,13.70088,0,0,1,2.40648-4.52591A13.8761,13.8761,0,0,1,53.97735,38.798a20.6544,20.6544,0,0,1,6.1981-2.0794V27.91045H70.4522v8.48443a45.47648,45.47648,0,0,1,7.29954,1.22159,32.199,32.199,0,0,1,4.853,1.63214l-2.53,9.78612a37.87229,37.87229,0,0,0-6.23815-1.95922,33.38646,33.38646,0,0,0-7.46308-.8144q-3.91512,0-5.62737,1.305a4.10611,4.10611,0,0,0-1.71224,3.42448,4.47812,4.47812,0,0,0,.5307,2.24294,4.87192,4.87192,0,0,0,1.67219,1.67217,17.69664,17.69664,0,0,0,2.81367,1.42854q1.67217.69592,4.0386,1.512A60.42959,60.42959,0,0,1,74.73447,60.71a24.75425,24.75425,0,0,1,5.30026,3.548,14.479,14.479,0,0,1,3.5079,4.68612,14.648,14.648,0,0,1,1.265,6.2782A16.59756,16.59756,0,0,1,84.07333,80.07195Z"/></svg>